<svg width="166" height="60" viewBox="0 0 166 60" fill="none" xmlns="http://www.w3.org/2000/svg">
<path d="M6.6332 49.9311V49.5978C6.86654 49.5311 6.99987 49.4311 7.09987 49.3645C7.16654 49.2978 7.2332 49.1645 7.2332 48.9645C7.2332 48.8978 7.2332 48.8311 7.2332 48.7645C7.2332 48.6978 7.19987 48.6311 7.19987 48.5978L3.59987 38.5645C3.46654 38.1311 3.29987 37.8645 3.16654 37.6978C3.0332 37.5311 2.79987 37.4311 2.5332 37.3311V36.9978H6.66654V37.2978C6.4332 37.3645 6.29987 37.4645 6.19987 37.5311C6.1332 37.5978 6.06654 37.6978 6.06654 37.8311C6.06654 37.8645 6.06654 37.9311 6.09987 37.9978C6.1332 38.0645 6.16654 38.1645 6.19987 38.2645L8.7332 45.9978L11.2332 38.2645C11.2332 38.2311 11.2665 38.1645 11.2665 38.0978C11.2665 38.0311 11.2665 37.9645 11.2665 37.8978C11.2665 37.7311 11.2332 37.5978 11.1665 37.5311C11.0999 37.4645 10.9332 37.3645 10.6999 37.2978V36.9978H15.1665V37.2978C14.9332 37.3645 14.7999 37.4645 14.6999 37.5311C14.6332 37.5978 14.5665 37.6978 14.5665 37.8311C14.5665 37.8645 14.5665 37.9311 14.5999 37.9978C14.6332 38.0645 14.6665 38.1645 14.6999 38.2645L17.1999 45.7978L19.6665 38.2645C19.6665 38.2311 19.6999 38.1645 19.6999 38.0978C19.6999 38.0311 19.6999 37.9645 19.6999 37.8978C19.6999 37.7311 19.6665 37.5978 19.5999 37.5311C19.5332 37.4645 19.3665 37.3645 19.1332 37.2978V36.9978H23.1332V37.2978C22.8332 37.3978 22.6332 37.5311 22.4999 37.6645C22.3665 37.8311 22.2332 38.0978 22.0665 38.5311L18.5665 48.5645C18.5665 48.5978 18.5332 48.6645 18.5332 48.7311C18.5332 48.7978 18.5332 48.8645 18.5332 48.9311C18.5332 49.1311 18.5665 49.2311 18.6332 49.3311C18.6999 49.3978 18.8665 49.4978 19.0999 49.5645V49.8978H15.1332V49.5645C15.3665 49.4978 15.5332 49.3978 15.5999 49.3311C15.6665 49.2311 15.7332 49.1311 15.7332 48.9311C15.7332 48.8978 15.7332 48.8311 15.6999 48.7645C15.6999 48.6978 15.6665 48.6311 15.6332 48.5645L12.8665 40.0311L10.0665 48.5311C10.0665 48.5645 10.0332 48.6311 10.0332 48.6978C10.0332 48.7645 10.0332 48.8311 10.0332 48.8978C10.0332 49.0645 10.0665 49.1978 10.1332 49.2978C10.1999 49.3645 10.3665 49.4645 10.5999 49.5645V49.8978L6.6332 49.9311Z" fill="white"/>
<path d="M24.9316 49.1307L25.9983 46.4974L26.3316 46.6641C26.3316 46.6641 26.3316 46.6974 26.2983 46.7307C26.2983 46.7974 26.265 46.8641 26.265 46.8641C26.265 47.1307 26.665 47.4307 27.465 47.7307C28.265 48.0307 29.065 48.1974 29.8983 48.1974C30.7316 48.1974 31.4316 48.0641 31.9316 47.8307C32.4316 47.5974 32.665 47.2641 32.665 46.8307C32.665 46.2307 31.8316 45.8974 30.1316 45.7974C29.465 45.7641 28.9316 45.7307 28.5316 45.6974C27.365 45.5974 26.4983 45.2974 25.9316 44.7974C25.365 44.2974 25.065 43.5974 25.065 42.6974C25.065 41.6307 25.4983 40.7307 26.3316 40.0974C27.165 39.4641 28.3316 39.0974 29.7316 39.0974C30.6983 39.0974 31.665 39.2974 32.6316 39.6974C32.7983 39.7641 32.8983 39.7974 32.9316 39.7974C33.0316 39.7974 33.2316 39.8641 33.4983 40.0307C33.7983 40.1974 33.9983 40.2641 34.165 40.2641C34.1983 40.2641 34.2316 40.2307 34.2983 40.1974C34.365 40.1641 34.4316 40.1307 34.4983 40.0641L34.765 40.1974L33.565 42.8641L33.2316 42.6641C33.2316 42.6641 33.2316 42.6307 33.265 42.6307C33.265 42.6307 33.265 42.5974 33.265 42.5307C33.265 42.2307 32.8983 41.8974 32.1316 41.5307C31.365 41.1641 30.5983 40.9974 29.7983 40.9974C29.065 40.9974 28.465 41.0974 27.9983 41.3307C27.5316 41.5641 27.2983 41.8307 27.2983 42.1641C27.2983 42.6974 27.965 42.9974 29.265 43.0641C30.265 43.1307 31.065 43.1974 31.6983 43.3307C32.765 43.5307 33.5983 43.8974 34.1316 44.4307C34.665 44.9641 34.9316 45.6307 34.9316 46.4641C34.9316 47.5307 34.465 48.3974 33.5316 49.0641C32.5983 49.7307 31.3983 50.0641 29.8983 50.0641C28.4983 50.0641 27.1316 49.7641 25.865 49.1307C25.6316 48.9974 25.465 48.9641 25.4316 48.9641C25.365 48.9641 25.2983 48.9974 25.265 48.9974C25.2316 49.0307 25.1983 49.0641 25.165 49.1307H24.9316Z" fill="white"/>
<path d="M49.3659 45.4636L49.5992 45.2969L51.2659 48.0636L50.9992 48.2302C50.8992 48.1636 50.8325 48.0969 50.7992 48.0636C50.7659 48.0302 50.6992 48.0302 50.6659 48.0302C50.5659 48.0302 50.3325 48.1636 49.9325 48.4302C48.0992 49.5969 46.3325 50.1636 44.6325 50.1636C42.6325 50.1636 40.9659 49.5302 39.6659 48.2636C38.3326 46.9969 37.6992 45.3969 37.6992 43.4636C37.6992 41.4969 38.3659 39.8969 39.6992 38.6302C41.0326 37.3636 42.7992 36.7302 44.9325 36.7302C46.0325 36.7302 47.1325 36.9302 48.2659 37.2969C49.3992 37.6969 49.9659 37.8636 50.0325 37.8636C50.1325 37.8636 50.2325 37.8302 50.3325 37.8302C50.4325 37.8302 50.5325 37.7969 50.6659 37.7969L50.8992 37.9636L49.1992 40.8969L48.9325 40.7302C48.9325 40.7302 48.9325 40.6969 48.9659 40.6969C48.9659 40.6969 48.9659 40.6636 48.9659 40.6302C48.9659 40.2636 48.5325 39.8969 47.6325 39.4969C46.7659 39.0969 45.8325 38.9302 44.8325 38.9302C43.4992 38.9302 42.3992 39.3302 41.5326 40.1636C40.6659 40.9969 40.2326 42.0302 40.2326 43.2969C40.2326 44.6302 40.6659 45.7302 41.5326 46.5302C42.3992 47.3636 43.5325 47.7636 44.8992 47.7636C45.9325 47.7636 46.9325 47.5302 47.8992 47.0636C48.8992 46.5969 49.3992 46.1969 49.3992 45.8969C49.3992 45.8302 49.3992 45.7636 49.3659 45.6969C49.3992 45.6302 49.3992 45.5302 49.3659 45.4636Z" fill="white"/>
<path d="M62.2652 40.3339C62.2652 40.1005 62.2319 39.9339 62.1652 39.8339C62.0986 39.7339 61.9319 39.6672 61.7319 39.6339V39.3005H65.2319V39.6339C65.0319 39.6672 64.8652 39.7339 64.7986 39.8339C64.7319 39.9339 64.6986 40.1005 64.6652 40.3339L64.6319 45.9339C64.6319 47.4672 64.2319 48.5339 63.4652 49.1672C62.6986 49.8005 61.3652 50.1005 59.5319 50.1005C57.7319 50.1005 56.4319 49.7672 55.6319 49.1339C54.8652 48.5005 54.4652 47.4339 54.4652 45.9005V40.3339C54.4652 40.1005 54.4319 39.9339 54.3319 39.8339C54.2652 39.7339 54.0986 39.6672 53.8652 39.6339V39.3005H57.3652V39.6339C57.1652 39.6672 56.9986 39.7672 56.9319 39.8339C56.8652 39.9339 56.8319 40.1005 56.8319 40.3339V45.4672C56.8319 46.4005 57.0319 47.0672 57.4652 47.4672C57.8986 47.8672 58.5652 48.0672 59.5319 48.0672C60.4986 48.0672 61.1986 47.8672 61.5986 47.4339C61.9986 47.0005 62.2319 46.3005 62.2319 45.3339V40.3339H62.2652Z" fill="white"/>
<path d="M75.734 39.3005C76.8673 39.3005 77.7673 39.5339 78.4007 40.0339C79.034 40.5339 79.334 41.2005 79.334 42.0339C79.334 42.5005 79.234 42.9339 79.0007 43.2672C78.7673 43.6005 78.434 43.9339 77.9673 44.2005C78.534 44.5005 78.9673 44.8672 79.234 45.3005C79.5007 45.7339 79.634 46.2339 79.634 46.8005C79.634 47.7672 79.2673 48.5339 78.5673 49.0672C77.834 49.6005 76.834 49.8672 75.5007 49.8672H68.834V49.5339C69.034 49.5005 69.2007 49.4005 69.2673 49.3339C69.334 49.2339 69.3673 49.0672 69.3673 48.8339V40.3339C69.3673 40.1005 69.334 39.9339 69.2673 39.8339C69.2007 39.7339 69.034 39.6672 68.834 39.6339V39.3005H75.734ZM75.034 41.1672H71.8006V43.3672H75.3006C75.9007 43.3672 76.3673 43.2672 76.634 43.1005C76.934 42.9339 77.0673 42.6339 77.0673 42.2672C77.0673 41.8672 76.9007 41.6005 76.6007 41.4339C76.3007 41.2339 75.7673 41.1672 75.034 41.1672ZM74.834 45.2005H71.7673V48.0672H74.7673C75.7673 48.0672 76.434 47.9672 76.834 47.7339C77.234 47.5005 77.4007 47.1339 77.4007 46.6005C77.4007 46.1005 77.2007 45.7339 76.8007 45.5005C76.4007 45.3005 75.734 45.2005 74.834 45.2005Z" fill="white"/>
<path d="M92.168 39.2988C92.4013 39.2988 92.568 39.2655 92.6347 39.1988C92.7013 39.1322 92.768 38.9655 92.8347 38.7322H93.1347V42.0322H92.8347C92.8013 41.7988 92.7347 41.6322 92.6347 41.5655C92.5347 41.4988 92.4013 41.4322 92.168 41.4322H86.1346V43.5655H89.8347C90.068 43.5655 90.2347 43.5322 90.3013 43.4655C90.368 43.3988 90.4347 43.2322 90.5013 42.9988H90.8013V46.0322H90.5013C90.468 45.7989 90.4013 45.6322 90.3013 45.5655C90.2013 45.4988 90.068 45.4322 89.8347 45.4322H86.1346V47.8322H92.4013C92.6347 47.8322 92.8013 47.7988 92.868 47.7322C92.9347 47.6655 93.0013 47.4988 93.068 47.2655H93.368V50.5655H93.068C93.0347 50.3322 92.968 50.1655 92.868 50.0655C92.768 49.9655 92.6347 49.9322 92.4013 49.9322H83.168V49.5989C83.4013 49.5655 83.5346 49.4655 83.6346 49.3655C83.7013 49.2655 83.768 49.0989 83.768 48.8655V40.3322C83.768 40.0988 83.7346 39.9322 83.6346 39.8322C83.568 39.7322 83.4013 39.6655 83.168 39.6322V39.2988H92.168Z" fill="white"/>
<path d="M104.301 39.2983C104.067 39.2983 103.901 39.3317 103.834 39.3983C103.767 39.465 103.701 39.6317 103.634 39.865H103.334V36.365H103.634C103.701 36.5983 103.767 36.765 103.834 36.865C103.934 36.965 104.067 36.9983 104.301 36.9983H114.334C114.567 36.9983 114.734 36.965 114.801 36.865C114.867 36.7983 114.934 36.6317 115.001 36.365H115.301V39.865H115.001C114.967 39.6317 114.901 39.465 114.801 39.365C114.701 39.265 114.567 39.2317 114.334 39.2317H110.601V48.8317C110.601 49.065 110.634 49.2317 110.701 49.3317C110.767 49.4317 110.934 49.4983 111.134 49.5317V49.865H107.434V49.5317C107.667 49.465 107.801 49.3983 107.867 49.2983C107.934 49.1983 107.967 49.0317 108.001 48.7983V39.1983H104.301V39.2983Z" fill="white"/>
<path d="M126.732 39.2988C126.966 39.2988 127.132 39.2655 127.199 39.1988C127.266 39.1322 127.332 38.9655 127.399 38.7322H127.699V42.0322H127.399C127.366 41.7988 127.299 41.6322 127.199 41.5655C127.099 41.4988 126.966 41.4322 126.732 41.4322H120.699V43.5655H124.399C124.632 43.5655 124.799 43.5322 124.866 43.4655C124.932 43.3988 124.999 43.2322 125.066 42.9988H125.366V46.0322H125.066C125.032 45.7989 124.966 45.6322 124.866 45.5655C124.766 45.4988 124.632 45.4322 124.399 45.4322H120.699V47.8322H126.966C127.199 47.8322 127.366 47.7988 127.432 47.7322C127.499 47.6655 127.566 47.4988 127.632 47.2655H127.932V50.5655H127.632C127.599 50.3322 127.532 50.1655 127.432 50.0655C127.332 49.9655 127.199 49.9322 126.966 49.9322H117.732V49.5989C117.966 49.5655 118.099 49.4655 118.199 49.3655C118.266 49.2655 118.332 49.0989 118.332 48.8655V40.3322C118.332 40.0988 118.299 39.9322 118.199 39.8322C118.132 39.7322 117.966 39.6655 117.732 39.6322V39.2988H126.732Z" fill="white"/>
<path d="M140.432 42.631L140.199 42.4977V42.4643C140.199 42.4643 140.199 42.431 140.199 42.3977C140.199 42.131 139.832 41.831 139.132 41.531C138.432 41.231 137.699 41.0643 136.932 41.0643C135.832 41.0643 134.965 41.3977 134.299 42.031C133.632 42.6977 133.299 43.531 133.299 44.5977C133.299 45.631 133.632 46.4977 134.299 47.131C134.965 47.7643 135.865 48.0643 136.965 48.0643C137.799 48.0643 138.632 47.8643 139.399 47.4977C140.165 47.131 140.565 46.7977 140.565 46.5643C140.565 46.5643 140.565 46.4977 140.532 46.431C140.532 46.3643 140.499 46.2977 140.499 46.231L140.765 46.0977L142.265 48.431L142.032 48.5643C141.965 48.4977 141.899 48.4643 141.865 48.4643C141.832 48.431 141.799 48.431 141.765 48.431C141.699 48.431 141.465 48.531 141.099 48.7643C139.565 49.6977 138.099 50.1643 136.665 50.1643C134.999 50.1643 133.599 49.631 132.499 48.5643C131.399 47.4977 130.832 46.1977 130.832 44.5977C130.832 42.9643 131.399 41.631 132.532 40.5977C133.665 39.5643 135.132 39.031 136.932 39.031C137.832 39.031 138.765 39.1977 139.732 39.4977C140.665 39.831 141.199 39.9643 141.265 39.9643C141.332 39.9643 141.432 39.9643 141.499 39.931C141.565 39.931 141.665 39.8977 141.765 39.8643L142.032 39.9977L140.432 42.631Z" fill="white"/>
<path d="M147.568 48.9005C147.568 49.1339 147.601 49.3005 147.701 49.4005C147.768 49.5005 147.935 49.5672 148.168 49.6005V49.9339H144.668V49.6005C144.868 49.5672 145.035 49.4672 145.101 49.4005C145.168 49.3339 145.201 49.1339 145.201 48.9005V40.3339C145.201 40.1005 145.168 39.9339 145.101 39.8339C145.035 39.7339 144.868 39.6672 144.668 39.6339V39.3005H148.168V39.6339C147.935 39.6672 147.801 39.7672 147.701 39.8339C147.635 39.9339 147.568 40.1005 147.568 40.3339V43.2005H153.068V40.3339C153.068 40.1005 153.035 39.9339 152.935 39.8339C152.868 39.7339 152.701 39.6672 152.468 39.6339V39.3005H156.001V39.6339C155.768 39.6672 155.635 39.7672 155.568 39.8339C155.501 39.9339 155.468 40.1005 155.468 40.3339V48.8672C155.468 49.1005 155.501 49.2672 155.568 49.3672C155.635 49.4672 155.801 49.5339 156.001 49.5672V49.9005H152.501V49.5672C152.735 49.5339 152.901 49.4339 152.968 49.3672C153.035 49.2672 153.101 49.1005 153.101 48.8672V45.2672H147.601L147.568 48.9005Z" fill="white"/>
<path d="M159.529 39.3545V35.8322H161.252C161.474 35.8322 161.678 35.8783 161.863 35.9706C162.05 36.0629 162.198 36.1965 162.306 36.3715C162.418 36.5433 162.473 36.7533 162.473 37.0015C162.473 37.2497 162.416 37.4613 162.302 37.6363C162.187 37.8113 162.034 37.9449 161.843 38.0372C161.653 38.1263 161.441 38.1708 161.209 38.1708H160.03V37.5074H161.018C161.151 37.5074 161.266 37.4645 161.361 37.3786C161.46 37.2927 161.509 37.1654 161.509 36.9968C161.509 36.8218 161.46 36.6977 161.361 36.6245C161.266 36.5481 161.153 36.5099 161.023 36.5099H160.445V39.3545H159.529ZM161.777 37.727L162.578 39.3545H161.576L160.827 37.727H161.777ZM160.908 41.4545C160.38 41.4545 159.885 41.3558 159.424 41.1586C158.962 40.9613 158.557 40.6877 158.207 40.3377C157.857 39.9877 157.583 39.582 157.386 39.1206C157.188 38.6593 157.09 38.1645 157.09 37.6363C157.09 37.1081 157.188 36.6133 157.386 36.152C157.583 35.6906 157.857 35.2849 158.207 34.9349C158.557 34.5849 158.962 34.3113 159.424 34.114C159.885 33.9168 160.38 33.8181 160.908 33.8181C161.436 33.8181 161.931 33.9168 162.392 34.114C162.854 34.3113 163.259 34.5849 163.609 34.9349C163.959 35.2849 164.233 35.6906 164.43 36.152C164.628 36.6133 164.726 37.1081 164.726 37.6363C164.726 38.1645 164.628 38.6593 164.43 39.1206C164.233 39.582 163.959 39.9877 163.609 40.3377C163.259 40.6877 162.854 40.9613 162.392 41.1586C161.931 41.3558 161.436 41.4545 160.908 41.4545ZM160.908 40.4474C161.43 40.4474 161.902 40.3218 162.326 40.0704C162.752 39.8158 163.091 39.477 163.342 39.0538C163.593 38.6274 163.719 38.1549 163.719 37.6363C163.719 37.1177 163.592 36.6468 163.337 36.2236C163.086 35.7972 162.747 35.4583 162.321 35.207C161.898 34.9524 161.427 34.8252 160.908 34.8252C160.393 34.8252 159.922 34.9524 159.495 35.207C159.069 35.4583 158.73 35.7972 158.479 36.2236C158.227 36.6468 158.102 37.1177 158.102 37.6363C158.102 38.1549 158.227 38.6274 158.479 39.0538C158.73 39.477 159.069 39.8158 159.495 40.0704C159.922 40.3218 160.393 40.4474 160.908 40.4474Z" fill="white"/>
<path d="M45.9661 27.3979L53.6661 14.1313L54.0328 13.5312H54.7328H69.9995H70.6995L71.0328 14.1313L78.7328 27.2646L79.0995 27.8646L78.7661 28.4979L74.9661 35.0979H72.1995L76.3328 27.8979L69.3328 15.9646H55.3995L48.3995 27.9979L52.5995 35.0979H49.7995L45.9661 28.6313L45.6328 28.0312L45.9661 27.3979Z" fill="white"/>
<path d="M0.366667 27.3979L8.06667 14.1313L8.4 13.5312H9.1H24.3667H25.0667L25.4 14.1313L33.1333 27.2646L33.4667 27.8646L33.1333 28.4979L29.3333 35.0979H26.5667L30.7 27.8979L23.7 15.9646H9.8L2.8 27.9979L6.96667 35.0979H4.16667L0.366667 28.6313L0 28.0312L0.366667 27.3979Z" fill="white"/>
<path d="M23.1674 13.8667L30.8674 0.6L31.2341 0H31.9008H47.2008H47.8674L48.2341 0.6L55.9341 13.7333L56.3008 14.3333L55.9341 14.9333L52.1674 21.5667H49.3674L53.5008 14.3333L46.5008 2.4H32.6008L25.6008 14.4667L29.8008 21.5667H27.0008L23.1674 15.1L22.8008 14.4667L23.1674 13.8667Z" fill="white"/>
<path d="M23.1674 15.034L30.8674 28.3007L31.2341 28.9007H31.9008H47.2008H47.8674L48.2341 28.3007L55.9341 15.1673L56.3008 14.5673L55.9341 13.9673L52.1674 7.33398H49.3674L53.5008 14.5673L46.5008 26.5007H32.6008L25.6008 14.434L29.8008 7.33398H27.0008L23.1674 13.834L22.8008 14.434L23.1674 15.034Z" fill="white"/>
</svg>
