<svg width="64" height="64" viewBox="0 0 64 64" fill="none" xmlns="http://www.w3.org/2000/svg">
<g clip-path="url(#clip0_409_683)">
<path opacity="0.1" d="M64 0H0V64H64V0Z" fill="#FB6238"/>
<path d="M47.202 24.2393L46.4604 23.5482C45.7593 22.8956 45.5027 21.8934 45.8037 20.9821L46.123 20.0182C46.5776 18.6463 45.7532 17.1814 44.3449 16.8581L43.3568 16.6298C42.4233 16.4136 41.7 15.6761 41.506 14.7365L41.2999 13.7444C41.0069 12.33 39.5601 11.4733 38.1801 11.8956L37.2102 12.1926C36.2929 12.4735 35.2988 12.1946 34.6603 11.4794L33.9854 10.7216C33.0236 9.64265 31.3446 9.62449 30.3585 10.6812L29.6675 11.4227C29.0148 12.1239 28.0126 12.3805 27.1014 12.0795L26.1375 11.7602C24.7655 11.3056 23.3007 12.1299 22.9773 13.5383L22.749 14.5264C22.5328 15.4599 21.7933 16.1832 20.8557 16.3772L19.8616 16.5853C18.4472 16.8783 17.5905 18.3251 18.0128 19.7051L18.3098 20.675C18.5907 21.5923 18.3119 22.5864 17.5965 23.2249L16.8388 23.8998C15.7599 24.8616 15.7417 26.5407 16.7984 27.5267L17.54 28.2178C18.2412 28.8704 18.4977 29.8726 18.1967 30.7839L17.8774 31.7477C17.4228 33.1196 18.2472 34.5846 19.6556 34.9078L20.6436 35.1362C21.5771 35.3524 22.3005 36.0919 22.4944 37.0294L22.7005 38.0216C22.9935 39.436 24.4402 40.2927 25.8203 39.8704L26.7901 39.5734C27.7075 39.2925 28.7016 39.5714 29.3401 40.2866L30.015 41.0443C30.9768 42.1233 32.6559 42.1415 33.6419 41.0847L34.3329 40.3432C34.9856 39.6421 35.9878 39.3855 36.8991 39.6865L37.8629 40.0057C39.2349 40.4604 40.6998 39.636 41.0231 38.2277L41.2514 37.2396C41.4676 36.3061 42.2071 35.5827 43.1447 35.3887L44.1388 35.1827C45.5532 34.8897 46.4099 33.443 45.9876 32.0629L45.6906 31.093C45.4097 30.1757 45.6885 29.1816 46.4038 28.543L47.1616 27.8682C48.2406 26.9044 48.2587 25.2233 47.202 24.2393ZM31.8012 35.9848C26.2224 35.9222 21.7488 31.3477 21.8115 25.7688C21.8741 20.19 26.4487 15.7165 32.0275 15.7791C37.6063 15.8417 42.0798 20.4163 42.0172 25.9951C41.9546 31.5739 37.38 36.0475 31.8012 35.9848Z" fill="#FB6238"/>
<path opacity="0.35" d="M31.9153 35.9831C37.495 35.9831 42.0182 31.4599 42.0182 25.8803C42.0182 20.3006 37.495 15.7773 31.9153 15.7773C26.3357 15.7773 21.8125 20.3006 21.8125 25.8803C21.8125 31.4599 26.3357 35.9831 31.9153 35.9831Z" fill="#FB6238"/>
<path opacity="0.35" d="M41.1182 32.0463C39.5179 35.5944 35.9414 38.0514 31.8013 38.0049C27.6612 37.9585 24.1393 35.4206 22.6198 31.8381L21.949 31.8301L21.7247 51.8721C21.7066 53.5654 23.6544 54.5292 24.99 53.4866L28.0491 51.0942C30.2818 49.3484 33.4279 49.3827 35.6223 51.1791L38.6268 53.6381C39.9382 54.711 41.9083 53.7916 41.9264 52.0963L42.1507 32.0543L41.1182 32.0463Z" fill="#FB6238"/>
</g>
<defs>
<clipPath id="clip0_409_683">
<rect width="64" height="64" rx="8" fill="white"/>
</clipPath>
</defs>
</svg>
