<svg width="64" height="64" viewBox="0 0 64 64" fill="none" xmlns="http://www.w3.org/2000/svg">
<g clip-path="url(#clip0_409_678)">
<path d="M37.7831 30.5285L29.8237 25.2217C29.2801 24.8603 28.5804 24.8242 28.0088 25.133C27.4339 25.4417 27.0742 26.0412 27.0742 26.6933V37.307C27.0742 37.9607 27.4339 38.5586 28.0088 38.8674C28.2699 39.007 28.5574 39.076 28.8431 39.076C29.1864 39.076 29.528 38.9758 29.8237 38.7786L37.7831 33.4719C38.2759 33.1433 38.5715 32.5915 38.5715 32.0002C38.5715 31.4089 38.2759 30.857 37.7831 30.5285Z" fill="#FFB800"/>
<path opacity="0.35" d="M32.001 48.4257C41.0721 48.4257 48.4258 41.0721 48.4258 32.001C48.4258 22.9298 41.0721 15.5762 32.001 15.5762C22.9298 15.5762 15.5762 22.9298 15.5762 32.001C15.5762 41.0721 22.9298 48.4257 32.001 48.4257Z" fill="#FFB800"/>
<path opacity="0.1" d="M64 0H0V64H64V0Z" fill="#FFD600"/>
</g>
<defs>
<clipPath id="clip0_409_678">
<rect width="64" height="64" rx="8" fill="white"/>
</clipPath>
</defs>
</svg>
