<svg width="64" height="64" viewBox="0 0 64 64" fill="none" xmlns="http://www.w3.org/2000/svg">
<g clip-path="url(#clip0_409_669)">
<path d="M64 0H0V64H64V0Z" fill="white"/>
<path opacity="0.35" d="M43.8633 47.2508H20.1385C17.3306 47.2508 15.0547 44.975 15.0547 42.1669V25.2207H48.9472V42.1669C48.9472 44.975 46.6713 47.2508 43.8633 47.2508Z" fill="#BC61C2"/>
<path d="M41.3212 28.6112C42.7251 28.6112 43.8631 27.4731 43.8631 26.0693C43.8631 24.6654 42.7251 23.5273 41.3212 23.5273C39.9173 23.5273 38.7793 24.6654 38.7793 26.0693C38.7793 27.4731 39.9173 28.6112 41.3212 28.6112Z" fill="#BC61C2"/>
<path d="M22.6787 28.6112C24.0825 28.6112 25.2206 27.4731 25.2206 26.0693C25.2206 24.6654 24.0825 23.5273 22.6787 23.5273C21.2748 23.5273 20.1367 24.6654 20.1367 26.0693C20.1367 27.4731 21.2748 28.6112 22.6787 28.6112Z" fill="#BC61C2"/>
<path d="M45.5579 18.4439C45.1834 18.4439 41.5637 18.4439 37.0848 18.4439C37.0848 16.5714 35.5681 15.0547 33.6956 15.0547C33.0753 15.0547 30.9265 15.0547 30.3063 15.0547C28.4337 15.0547 26.917 16.5714 26.917 18.4439C22.4381 18.4439 18.8184 18.4439 18.4439 18.4439C16.5713 18.4439 15.0547 19.9607 15.0547 21.8332C15.0547 23.7058 15.0547 26.9171 15.0547 26.9171H48.9472C48.9472 26.9171 48.9472 23.7058 48.9472 21.8332C48.9472 19.9607 47.4305 18.4439 45.5579 18.4439Z" fill="#BC61C2"/>
<path d="M37.0857 35.8272V34.9545C37.0857 34.258 36.5231 33.6953 35.8283 33.6953H28.1754C27.4806 33.6953 26.918 34.258 26.918 34.9528V35.8255C26.918 36.522 27.4806 37.0846 28.1754 37.0846H35.8266C36.5231 37.0846 37.0857 36.522 37.0857 35.8272Z" fill="#BC61C2"/>
<path opacity="0.1" d="M64 0H0V64H64V0Z" fill="#BE58C6"/>
</g>
<defs>
<clipPath id="clip0_409_669">
<rect width="64" height="64" rx="8" fill="white"/>
</clipPath>
</defs>
</svg>
