<svg width="64" height="64" viewBox="0 0 64 64" fill="none" xmlns="http://www.w3.org/2000/svg">
<g clip-path="url(#clip0_409_700)">
<path opacity="0.1" d="M64 0H0V64H64V0Z" fill="#FF6262"/>
<path opacity="0.35" d="M23.8453 28.3762C27.3476 28.3762 30.1868 25.5371 30.1868 22.0348C30.1868 18.5325 27.3476 15.6934 23.8453 15.6934C20.3431 15.6934 17.5039 18.5325 17.5039 22.0348C17.5039 25.5371 20.3431 28.3762 23.8453 28.3762Z" fill="#FF6262"/>
<path opacity="0.35" d="M40.1539 28.3762C43.6562 28.3762 46.4954 25.5371 46.4954 22.0348C46.4954 18.5325 43.6562 15.6934 40.1539 15.6934C36.6516 15.6934 33.8125 18.5325 33.8125 22.0348C33.8125 25.5371 36.6516 28.3762 40.1539 28.3762Z" fill="#FF6262"/>
<path opacity="0.35" d="M29.2812 35.623H43.776C47.2728 35.623 50.1174 38.4676 50.1174 41.9645C50.1174 45.4613 47.2728 48.3059 43.776 48.3059H29.2812V35.623Z" fill="#FF6262"/>
<path d="M35.6249 41.9645C35.6249 45.4613 32.7803 48.3059 29.2834 48.3059H20.2242C18.4849 48.3059 16.8904 47.5993 15.749 46.4397C14.5894 45.2983 13.8828 43.7039 13.8828 41.9645C13.8828 38.4676 16.7274 35.623 20.2242 35.623H29.2834C31.0228 35.623 32.6172 36.3297 33.7587 37.4892C34.9182 38.6308 35.6249 40.2252 35.6249 41.9645Z" fill="#FF6262"/>
</g>
<defs>
<clipPath id="clip0_409_700">
<rect width="64" height="64" rx="8" fill="white"/>
</clipPath>
</defs>
</svg>
