<svg width="64" height="64" viewBox="0 0 64 64" fill="none" xmlns="http://www.w3.org/2000/svg">
<g clip-path="url(#clip0_409_706)">
<path d="M64 0H0V64H64V0Z" fill="white"/>
<path opacity="0.35" d="M43.8663 41.3223H20.1359C17.3272 41.3223 15.0508 39.0459 15.0508 36.2372V22.6769C15.0508 19.8682 17.3272 17.5918 20.1359 17.5918H43.8663C46.675 17.5918 48.9515 19.8682 48.9515 22.6769V36.2372C48.9515 39.0459 46.675 41.3223 43.8663 41.3223Z" fill="#316AFF"/>
<path d="M48.1037 41.3223C47.8054 41.3223 16.1963 41.3223 15.8981 41.3223C14.4945 41.3223 13.3555 42.4614 13.3555 43.8649C13.3555 45.2683 14.4945 46.4074 15.8981 46.4074C16.1963 46.4074 47.8054 46.4074 48.1037 46.4074C49.5072 46.4074 50.6463 45.2683 50.6463 43.8649C50.6463 42.4614 49.5072 41.3223 48.1037 41.3223Z" fill="#316AFF"/>
<path opacity="0.1" d="M64 0H0V64H64V0Z" fill="#316AFF"/>
</g>
<defs>
<clipPath id="clip0_409_706">
<rect width="64" height="64" rx="8" fill="white"/>
</clipPath>
</defs>
</svg>
