<svg width="74" height="74" viewBox="0 0 74 74" fill="none" xmlns="http://www.w3.org/2000/svg">
<rect width="74" height="74" rx="4" fill="#E9F5FF"/>
<path fill-rule="evenodd" clip-rule="evenodd" d="M54.58 43.1661V34.9373C54.58 25.4029 54.58 22 35.79 22C17 22 17 25.4029 17 34.9373V43.1661C17 52.7023 17 56.1053 35.79 56.1053C54.58 56.1053 54.58 52.7023 54.58 43.1661Z" stroke="#2699FB" stroke-width="2" stroke-linecap="round" stroke-linejoin="round"/>
<path fill-rule="evenodd" clip-rule="evenodd" d="M35.7904 33.5195C34.4244 33.5195 34.2944 35.6985 33.4824 36.4696C32.6684 37.2389 30.1424 36.3597 29.7904 37.7258C29.4404 39.0938 31.7144 39.5581 31.9964 40.7309C32.2764 41.9037 30.8884 43.5522 32.0744 44.3745C33.2624 45.193 34.5404 43.3381 35.7904 43.3381C37.0404 43.3381 38.3184 45.193 39.5064 44.3745C40.6944 43.5522 39.3044 41.9037 39.5844 40.7309C39.8664 39.5581 42.1404 39.0938 41.7904 37.7258C41.4384 36.3597 38.9124 37.2389 38.0984 36.4696C37.2864 35.6985 37.1564 33.5195 35.7904 33.5195Z" stroke="#2699FB" stroke-width="2" stroke-linecap="round" stroke-linejoin="round"/>
</svg>
