<svg width="64" height="64" viewBox="0 0 64 64" fill="none" xmlns="http://www.w3.org/2000/svg">
<g filter="url(#filter0_ddd_467_4)">
<rect x="4" y="4" width="56" height="56" rx="4" fill="white"/>
</g>
<path fill-rule="evenodd" clip-rule="evenodd" d="M30.8414 18C37.9329 18 43.6829 23.7486 43.6829 30.8414C43.6829 37.9343 37.9329 43.6829 30.8414 43.6829C23.7486 43.6829 18 37.9343 18 30.8414C18 23.7486 23.7486 18 30.8414 18Z" stroke="#2699FB" stroke-width="2" stroke-linecap="round" stroke-linejoin="round"/>
<path fill-rule="evenodd" clip-rule="evenodd" d="M43.7773 41.6602C44.9459 41.6602 45.893 42.6087 45.893 43.7759C45.893 44.9459 44.9459 45.893 43.7773 45.893C42.6087 45.893 41.6602 44.9459 41.6602 43.7759C41.6602 42.6087 42.6087 41.6602 43.7773 41.6602Z" stroke="#2699FB" stroke-width="2" stroke-linecap="round" stroke-linejoin="round"/>
<defs>
<filter id="filter0_ddd_467_4" x="0" y="0" width="64" height="64" filterUnits="userSpaceOnUse" color-interpolation-filters="sRGB">
<feFlood flood-opacity="0" result="BackgroundImageFix"/>
<feColorMatrix in="SourceAlpha" type="matrix" values="0 0 0 0 0 0 0 0 0 0 0 0 0 0 0 0 0 0 127 0" result="hardAlpha"/>
<feMorphology radius="4" operator="dilate" in="SourceAlpha" result="effect1_dropShadow_467_4"/>
<feOffset/>
<feColorMatrix type="matrix" values="0 0 0 0 0.94902 0 0 0 0 0.956863 0 0 0 0 0.968627 0 0 0 1 0"/>
<feBlend mode="normal" in2="BackgroundImageFix" result="effect1_dropShadow_467_4"/>
<feColorMatrix in="SourceAlpha" type="matrix" values="0 0 0 0 0 0 0 0 0 0 0 0 0 0 0 0 0 0 127 0" result="hardAlpha"/>
<feOffset dy="1"/>
<feGaussianBlur stdDeviation="1"/>
<feColorMatrix type="matrix" values="0 0 0 0 0.0627451 0 0 0 0 0.0941176 0 0 0 0 0.156863 0 0 0 0.06 0"/>
<feBlend mode="normal" in2="effect1_dropShadow_467_4" result="effect2_dropShadow_467_4"/>
<feColorMatrix in="SourceAlpha" type="matrix" values="0 0 0 0 0 0 0 0 0 0 0 0 0 0 0 0 0 0 127 0" result="hardAlpha"/>
<feOffset dy="1"/>
<feGaussianBlur stdDeviation="1.5"/>
<feColorMatrix type="matrix" values="0 0 0 0 0.0627451 0 0 0 0 0.0941176 0 0 0 0 0.156863 0 0 0 0.1 0"/>
<feBlend mode="normal" in2="effect2_dropShadow_467_4" result="effect3_dropShadow_467_4"/>
<feBlend mode="normal" in="SourceGraphic" in2="effect3_dropShadow_467_4" result="shape"/>
</filter>
</defs>
</svg>
